# xmcd
#
# Track frame offsets: 
#        150
#        13945
#        31432
#        44602
#        57981
#        75387
#        96083
#        112870
#        133403
#        147018
#        166099
#        182323
#        204750
#        216206
#        238996
#        256596
#        272204
#        284957
#        310141
#        320315
#        337077
#
# Disc length: 4732 seconds
#
# Revision: 1
# Processed by: cddbd v1.5.2PL0 Copyright (c) Steve Scherf et al.
# Submitted via: ExactAudioCopy v1.0b6
#
DISCID=32127a15
DTITLE=Various Artist - Dust On The Nettles
DYEAR=2015
DGENRE=Folk
TTITLE0=Bill Fay - Garden Song
TTITLE1=C.O.B. - Music Of The Ages
TTITLE2=Everyone Involved - A Song For The System
TTITLE3=Country Sun - The Colour Is Blue
TTITLE4=Wild Country - Silent Village
TTITLE5=Marc Brierley - Welcome To The Citadel
TTITLE6=Occasional Word - The Evil Venus Tree
TTITLE7=Anne Briggs - Standing On The Shore
TTITLE8=Agincourt - Kind Sir
TTITLE9=Mick Softley - Eagle
TTITLE10=Fresh Maggots - Rosemary Hill
TTITLE11=Music Box - The Happy King
TTITLE12=Fuchsia - Me And My Kite
TTITLE13=The Sun Also Rises - Wizard Shep
TTITLE14=Folkal Point - Scarborough Fair
TTITLE15=Marie Celeste - Prisoner
TTITLE16=Simon Finn - Patrice
TTITLE17=Shide and Acorn - Girl Of The Cosmos
TTITLE18=Chimera - Elegy To A Dead King
TTITLE19=Beau - Silence Returns
TTITLE20=Mother Nature - Orange Days And Purple Nights
EXTD=
EXTT0=
EXTT1=
EXTT2=
EXTT3=
EXTT4=
EXTT5=
EXTT6=
EXTT7=
EXTT8=
EXTT9=
EXTT10=
EXTT11=
EXTT12=
EXTT13=
EXTT14=
EXTT15=
EXTT16=
EXTT17=
EXTT18=
EXTT19=
EXTT20=
PLAYORDER=
